PathFileType	4	(X/Y/Z)	walk-thru1-4-TP.trc
DataRate	CameraRate	NumFrames	NumMarkers	Units	OrigDataRate	OrigDataStartFrame	OrigNumFrames
120.00	120.00	       4	60	mm	120.00	1	       508
Frame#	Time	Top.Head			Front.Head			Rear.Head			Jaw			C7			R.Clavicle			L.Clavicle			R.Shoulder			L.Shoulder			R.Scapula			L.Scapula			R.Scap.Inf			R.Biceps.Lateral			R.Elbow			R.Elbow.Medial			R.Forearm			R.Ulna			R.Radius			R.Wrist			R.Thumb.M1			R.Thumb.M2			R.Thumb.M3			R.Finger3.M1			R.Finger3.M2			R.Finger3.M3			L.Biceps.Lateral			L.Elbow			L.Elbow.Medial			L.Forearm			L.Ulna			L.Radius			L.Wrist			L.Thumb.M1			L.Thumb.M2			L.Thumb.M3			L.Finger3.M1			L.Finger3.M2			L.Finger3.M3			V.Sacral			R.ASIS			L.ASIS			R.Thigh			R.Thigh.Front			R.Knee			R.Knee.Medial			R.Shank			R.Ankle			R.Ankle.Medial			R.Heel			R.Toe			R.MedFoot			L.Thigh			L.Knee			L.Knee.Medial			L.Shank			L.Ankle			L.Ankle.Medial			L.Heel			L.Toe			L.MedFoot			V_mid_ASIS			V_R_Knee_JC			V_L_Knee_JC			V_R_Elbow_JC			V_L_Elbow_JC			V_R_Ankle_JC			V_L_Ankle_JC			V_R_Wrist_JC			V_L_Wrist_JC			V_R_ScaTrpz_1stMC_JC			V_R_1stMC_1stPP_JC			V_R_1stPP_1stDP_JC			V_R_LunCap_3rdMC_JC			V_R_3rdMC_3rdPP_JC			V_R_3rdPP_3rdMP_JC			V_R_3rdMP_3rdDP_JC			V_L_ScaTrpz_1stMC_JC			V_L_1stMC_1stPP_JC			V_L_1stPP_1stDP_JC			V_L_LunCap_3rdMC_JC			V_L_3rdMC_3rdPP_JC			V_L_3rdPP_3rdMP_JC			V_L_3rdMP_3rdPP_JC			V_ROOT_JC			V_R_Hip_JC			V_L_Hip_JC			V_R_GlenHum_JC			V_L_GlenHum_JC			V_ForeHead_Ctr			V_Vertex			V_Sagit_Lambdoid_Suture			V_R_FrontoTemp			V_L_FrontoTemporal			V_R_ParietalOccip			V_L_ParietalOcciptal			V_R_Temporal			V_L_Temporal			V_mid_FrontRearHead			V_mid_RLGlenHumCtrs			V_C7_vert			V_C1_vert			V_Mid_Hip			
		X1	Y1	Z1	X2	Y2	Z2	X3	Y3	Z3	X4	Y4	Z4	X5	Y5	Z5	X6	Y6	Z6	X7	Y7	Z7	X8	Y8	Z8	X9	Y9	Z9	X10	Y10	Z10	X11	Y11	Z11	X12	Y12	Z12	X13	Y13	Z13	X14	Y14	Z14	X15	Y15	Z15	X16	Y16	Z16	X17	Y17	Z17	X18	Y18	Z18	X19	Y19	Z19	X20	Y20	Z20	X21	Y21	Z21	X22	Y22	Z22	X23	Y23	Z23	X24	Y24	Z24	X25	Y25	Z25	X26	Y26	Z26	X27	Y27	Z27	X28	Y28	Z28	X29	Y29	Z29	X30	Y30	Z30	X31	Y31	Z31	X32	Y32	Z32	X33	Y33	Z33	X34	Y34	Z34	X35	Y35	Z35	X36	Y36	Z36	X37	Y37	Z37	X38	Y38	Z38	X39	Y39	Z39	X40	Y40	Z40	X41	Y41	Z41	X42	Y42	Z42	X43	Y43	Z43	X44	Y44	Z44	X45	Y45	Z45	X46	Y46	Z46	X47	Y47	Z47	X48	Y48	Z48	X49	Y49	Z49	X50	Y50	Z50	X51	Y51	Z51	X52	Y52	Z52	X53	Y53	Z53	X54	Y54	Z54	X55	Y55	Z55	X56	Y56	Z56	X57	Y57	Z57	X58	Y58	Z58	X59	Y59	Z59	X60	Y60	Z60	

1	0.000	-1046.85815	159.79381	1775.12573	-947.34558	131.79077	1658.36121	-1177.31628	170.69171	1700.51648	-1031.68677	137.65193	1481.97473	-1268.77979	158.09836	1572.18933	-1173.97546	29.10977	1501.60852	-1153.00562	271.83145	1476.46582	-1234.88379	-73.13853	1495.90649	-1190.31409	378.24515	1472.27393	-1336.24915	62.10337	1486.91760	-1326.99341	253.81268	1469.66931	-1366.78113	57.31750	1396.10840	-1283.36780	-109.33830	1359.90601	-1355.35059	-137.29855	1181.43237	-1344.64795	-41.23976	1170.72864	-1264.54382	-142.57243	1109.15234	-1338.33008	-146.13800	977.84796	-1225.84521	-145.23071	940.38019	-1229.80908	-188.82695	911.63629	-1210.50842	-138.52048	894.13855	-1202.40710	-111.22371	851.32574	-1200.22192	-105.62063	800.01831	-1218.25671	-198.68948	825.80792	-1251.14905	-146.35347	772.81262	-1271.29028	-97.43144	809.62128	-1237.38342	410.53201	1323.39807	-1289.31995	424.12961	1150.85376	-1307.33704	331.43433	1125.85449	-1200.08606	422.90561	1076.48779	-1252.29968	448.42966	967.82056	-1152.93054	424.84369	919.19019	-1172.26208	469.00836	883.95514	-1125.52344	429.37109	865.57336	-1102.15527	402.55182	821.73999	-1090.66235	406.69400	773.86584	-1138.06091	482.31107	788.14923	-1134.37878	452.48547	730.88391	-1139.43579	392.50690	729.01935	-1378.36853	139.29776	1120.38086	-1191.28674	-58.08140	1068.34790	-1181.88281	293.16412	1061.20642	-1128.95703	-70.93621	704.36298	-1024.12585	1.58345	611.44055	-1072.59937	-58.36954	550.00299	-1072.95496	60.52512	540.48297	-1106.46179	-25.79558	331.81854	-1254.74109	-58.75252	133.65968	-1216.29895	42.78609	143.27554	-1314.49512	2.31746	103.98071	-1100.33997	-37.28258	61.46685	-1137.61267	0.47728	101.28330	-1215.50818	285.39264	671.14850	-1214.44226	257.16129	528.36731	-1225.16992	149.55299	511.64743	-1225.98474	209.98872	318.79398	-1343.01624	213.28432	77.36331	-1295.71570	124.05449	111.86185	-1384.68542	141.86438	47.65971	-1160.03601	193.87012	43.90326	-1227.21082	158.74873	88.02242																																																																																																																															
2	0.008	-1042.29382	161.99225	1776.03552	-941.70081	136.25748	1658.71411	-1172.43787	170.96745	1699.43591	-1028.04700	137.27594	1480.40625	-1263.40735	158.84659	1571.53662	-1170.53906	29.72555	1501.47632	-1148.93079	272.75824	1476.15759	-1229.04333	-73.60931	1494.62537	-1186.93787	379.12268	1470.81799	-1332.38147	62.00605	1486.97229	-1322.18506	254.94218	1469.42957	-1362.25439	56.95896	1396.17859	-1277.80847	-108.15311	1359.12500	-1353.03381	-137.36397	1180.92212	-1341.12671	-39.95539	1169.89404	-1264.54382	-142.57243	1109.15234	-1335.15771	-144.58650	977.90619	-1224.65857	-143.26237	939.93982	-1229.56946	-189.13365	910.85895	-1210.50842	-138.52048	894.13855	-1199.64648	-110.88097	850.18823	-1206.57129	-110.06426	799.17108	-1214.54004	-200.66431	826.91815	-1247.86475	-150.15096	771.44269	-1268.11316	-100.76863	804.62183	-1232.62744	409.78088	1322.82495	-1283.38159	425.25943	1151.13403	-1302.29016	332.20758	1125.10706	-1192.84961	423.99124	1076.17200	-1245.55664	448.62900	968.02313	-1147.51489	428.27145	919.71735	-1163.57898	469.81079	883.81165	-1117.97644	428.52496	866.25970	-1094.73035	404.11710	821.84863	-1080.79651	407.88083	773.57953	-1130.96765	484.94321	790.00018	-1125.36365	453.61758	731.35272	-1131.26221	392.70157	730.12439	-1375.04419	139.40639	1120.45447	-1186.97327	-58.45113	1066.53271	-1179.20374	294.95712	1061.10034	-1124.40186	-71.27789	704.84680	-1018.91156	2.58962	612.58771	-1067.24365	-57.66154	550.94507	-1066.83008	59.68095	541.29041	-1095.78638	-25.39682	331.37357	-1236.13721	-57.64263	128.68143	-1201.11609	42.39148	139.76920	-1296.64563	1.94202	99.26595	-1080.21826	-36.87468	60.72693	-1120.20947	1.01411	101.27243	-1214.44385	285.53448	671.18903	-1213.44385	257.90143	527.91174	-1224.41614	149.43785	511.53687	-1225.12634	210.19807	318.38208	-1342.94519	213.25935	77.45628	-1295.71570	124.05449	111.86185	-1384.51050	141.95120	47.72933	-1161.18359	193.29913	43.32553	-1227.21082	158.74873	88.02242																																																																																																																															
3	0.017	-1038.64404	160.75037	1775.48633	-937.37799	133.34305	1657.75623	-1167.98950	170.96196	1699.48499	-1022.86823	136.39212	1479.75879	-1259.15649	158.51302	1570.83313	-1165.77991	28.66920	1500.25427	-1145.12488	273.10437	1476.68164	-1225.92285	-73.86976	1494.44873	-1181.47180	377.49847	1471.51123	-1328.62988	62.51143	1486.36182	-1318.42297	254.55521	1469.63867	-1358.45227	57.64762	1395.73804	-1274.64636	-108.67459	1359.75806	-1350.50439	-137.29315	1181.11450	-1337.96179	-39.63818	1169.21143	-1260.21265	-140.28505	1106.79614	-1331.49658	-144.30783	977.62518	-1226.86731	-138.38097	936.03577	-1223.03137	-186.31174	911.71808	-1208.10388	-139.62859	894.61255	-1199.44055	-112.21612	845.23334	-1197.88330	-114.56598	792.46564	-1209.41821	-202.79301	827.12878	-1243.84314	-156.27315	770.90771	-1265.76282	-105.83980	802.82764	-1230.14233	410.90256	1323.15613	-1277.60608	425.69562	1150.93127	-1297.11780	332.53302	1123.76013	-1189.31116	424.14410	1076.50500	-1239.63196	449.46072	968.31750	-1140.02466	426.17184	919.98822	-1157.05359	470.13080	884.42566	-1108.72559	429.70816	867.13977	-1087.93018	403.69852	822.90826	-1074.78748	407.77200	775.51318	-1121.22949	482.55209	789.53516	-1116.65198	454.48788	732.34308	-1123.01978	393.37411	730.66833	-1371.05652	139.42091	1119.66858	-1184.21289	-57.18786	1066.04663	-1174.09131	292.31577	1060.64648	-1118.98206	-71.41704	704.89465	-1014.32080	3.32853	613.34442	-1060.94324	-56.52766	551.64673	-1060.40625	59.72772	542.20087	-1084.69373	-24.16718	331.44763	-1219.24609	-55.78020	126.44892	-1185.45593	43.57554	137.31322	-1280.62537	1.21492	92.87247	-1061.76294	-35.18055	60.73353	-1102.37146	2.44378	100.63129	-1211.36536	285.22516	670.85278	-1212.36804	257.46994	527.28571	-1223.67908	149.14124	511.50198	-1224.13440	209.92651	317.83987	-1342.87476	213.23000	77.62993	-1297.11475	122.86466	113.32156	-1384.36523	141.60388	47.69425	-1160.84680	193.74467	43.42981	-1227.21082	158.74873	88.02242																																																																																																																															
4	0.025	-1034.37598	161.60869	1774.56616	-934.46802	134.34026	1657.70447	-1164.12500	170.34198	1698.63477	-1019.64917	137.91429	1479.31970	-1254.60999	159.04015	1571.11353	-1161.68347	29.22234	1499.96167	-1138.96582	272.32269	1476.68384	-1223.68640	-74.03051	1494.48511	-1178.84570	378.73715	1470.76050	-1324.21179	62.78159	1486.30786	-1314.91479	255.64815	1469.23413	-1354.27979	58.50747	1395.80188	-1271.23059	-107.32680	1359.07385	-1345.12683	-135.39745	1180.51660	-1333.08484	-38.68035	1169.30054	-1256.57458	-138.32861	1107.31787	-1327.15991	-142.74895	976.46814	-1223.39148	-136.00171	935.47333	-1219.03711	-185.14806	911.57611	-1200.47437	-134.80779	889.28766	-1194.58447	-114.37679	842.62830	-1194.50452	-118.90523	785.66455	-1205.65051	-206.26486	829.23254	-1239.11621	-160.64619	769.62695	-1262.66956	-111.17445	800.62720	-1224.19641	409.93170	1324.75610	-1272.87183	427.26898	1150.31628	-1290.93262	333.88373	1123.72241	-1182.66089	424.28979	1076.51880	-1232.00647	449.58484	966.56744	-1130.76758	427.46753	919.59387	-1149.21057	471.11829	884.70898	-1102.65698	429.00650	869.22968	-1080.19653	406.14203	823.71082	-1066.56360	410.26276	776.75592	-1115.92017	485.55344	791.90698	-1108.34180	453.83896	732.24146	-1113.62854	394.53641	731.73138	-1366.40735	139.19922	1119.72449	-1178.48865	-56.88226	1066.28796	-1173.99731	292.14352	1060.29529	-1114.34436	-71.14859	704.73633	-1009.90466	4.51804	613.50330	-1056.36572	-56.10586	551.96228	-1056.09521	62.28969	542.82654	-1073.01526	-24.28882	331.70349	-1201.60364	-56.97445	121.94541	-1168.11462	43.84311	133.76755	-1260.40356	3.06546	87.96059	-1043.73352	-34.48027	60.98775	-1083.97864	2.99917	99.84035	-1208.50208	285.56293	670.07410	-1211.34937	258.08792	526.92841	-1220.11084	150.47298	510.59061	-1223.49756	209.72408	317.46750	-1342.89087	213.30797	78.01057	-1296.00525	123.15691	113.02109	-1384.36523	141.60388	47.69425	-1160.81104	193.82297	43.49901	-1226.83264	158.49800	87.82365																																																																																																																															
